<svg width="431" height="24" viewBox="0 0 431 24" fill="none" xmlns="http://www.w3.org/2000/svg">
<path d="M415.397 6.81818H414.427L412.021 8.41406V9.37855L414.407 7.79261H414.467V17H415.397V6.81818ZM421.83 6.34091H421L417.718 18.5312H418.549L421.83 6.34091ZM426.635 17.1392C428.544 17.1392 429.936 15.9062 429.936 14.2756C429.936 12.983 429.141 12.0334 427.843 11.7749V11.7102C428.912 11.392 429.588 10.527 429.588 9.36364C429.588 7.90696 428.445 6.67898 426.655 6.67898C424.95 6.67898 423.587 7.77273 423.548 9.36364H424.447C424.477 8.22514 425.462 7.49929 426.645 7.49929C427.873 7.49929 428.683 8.27983 428.683 9.40341C428.683 10.5916 427.734 11.3523 426.416 11.3523H425.82V12.1875H426.416C428.027 12.1875 429.021 13.0376 429.021 14.2756C429.021 15.4489 428.032 16.304 426.625 16.304C425.327 16.304 424.313 15.5682 424.263 14.4545H423.324C423.374 16.0405 424.746 17.1392 426.635 17.1392Z" fill="#32292F"/>
<path d="M402 17.0219L0 18" stroke="#D6D4D5"/>
<rect y="16" width="122" height="2" fill="#32292F"/>
</svg>
